<svg width="117" height="19" viewBox="0 0 117 19" fill="none" xmlns="http://www.w3.org/2000/svg">
<path d="M6.176 5.28C6.992 5.28 7.728 5.368 8.384 5.544C9.04 5.72 9.56 5.96 9.944 6.264C10.328 6.568 10.52 6.912 10.52 7.296C10.52 7.504 10.448 7.704 10.304 7.896C10.176 8.088 9.984 8.184 9.728 8.184C9.52 8.184 9.344 8.144 9.2 8.064C9.072 7.984 8.944 7.88 8.816 7.752C8.704 7.624 8.544 7.512 8.336 7.416C8.144 7.304 7.864 7.216 7.496 7.152C7.128 7.088 6.752 7.056 6.368 7.056C5.504 7.056 4.736 7.264 4.064 7.68C3.392 8.096 2.864 8.656 2.48 9.36C2.112 10.064 1.928 10.864 1.928 11.76C1.928 12.656 2.112 13.456 2.48 14.16C2.848 14.864 3.36 15.424 4.016 15.84C4.672 16.256 5.432 16.464 6.296 16.464C6.856 16.464 7.296 16.416 7.616 16.32C7.952 16.224 8.24 16.112 8.48 15.984C8.752 15.824 8.96 15.664 9.104 15.504C9.264 15.344 9.48 15.264 9.752 15.264C10.024 15.264 10.232 15.352 10.376 15.528C10.52 15.704 10.592 15.92 10.592 16.176C10.592 16.464 10.392 16.768 9.992 17.088C9.592 17.408 9.048 17.68 8.36 17.904C7.688 18.128 6.928 18.24 6.08 18.24C4.864 18.24 3.8 17.96 2.888 17.4C1.976 16.824 1.264 16.048 0.752 15.072C0.256 14.08 0.00800008 12.976 0.00800008 11.76C0.00800008 10.544 0.264 9.448 0.776 8.472C1.304 7.496 2.032 6.72 2.96 6.144C3.888 5.568 4.96 5.28 6.176 5.28ZM18.7201 18.24C17.4401 18.24 16.3201 17.968 15.3601 17.424C14.4001 16.88 13.6561 16.136 13.1281 15.192C12.6001 14.232 12.3361 13.128 12.3361 11.88C12.3361 10.488 12.6081 9.304 13.1521 8.328C13.7121 7.336 14.4321 6.584 15.3121 6.072C16.1921 5.544 17.1281 5.28 18.1201 5.28C18.8721 5.28 19.5841 5.416 20.2561 5.688C20.9441 5.96 21.5521 6.36 22.0801 6.888C22.6241 7.4 23.0561 8.024 23.3761 8.76C23.6961 9.48 23.8641 10.288 23.8801 11.184C23.8641 11.44 23.7601 11.656 23.5681 11.832C23.3761 12.008 23.1521 12.096 22.8961 12.096H13.4161L12.9841 10.44H22.2241L21.8401 10.776V10.248C21.7921 9.592 21.5761 9.032 21.1921 8.568C20.8241 8.088 20.3681 7.72 19.8241 7.464C19.2801 7.208 18.7121 7.08 18.1201 7.08C17.6401 7.08 17.1601 7.168 16.6801 7.344C16.2161 7.504 15.7921 7.776 15.4081 8.16C15.0401 8.528 14.7441 9.008 14.5201 9.6C14.2961 10.192 14.1841 10.904 14.1841 11.736C14.1841 12.664 14.3681 13.48 14.7361 14.184C15.1201 14.888 15.6481 15.448 16.3201 15.864C16.9921 16.264 17.7681 16.464 18.6481 16.464C19.2241 16.464 19.7201 16.392 20.1361 16.248C20.5521 16.104 20.9041 15.928 21.1921 15.72C21.4961 15.496 21.7521 15.272 21.9601 15.048C22.1681 14.904 22.3761 14.832 22.5841 14.832C22.8081 14.832 23.0001 14.912 23.1601 15.072C23.3201 15.232 23.4001 15.424 23.4001 15.648C23.4001 15.92 23.2721 16.16 23.0161 16.368C22.5521 16.864 21.9361 17.304 21.1681 17.688C20.4161 18.056 19.6001 18.24 18.7201 18.24ZM28.763 17.016C28.763 17.288 28.667 17.52 28.475 17.712C28.283 17.904 28.051 18 27.779 18C27.507 18 27.283 17.904 27.107 17.712C26.931 17.52 26.843 17.288 26.843 17.016V1.2C26.843 0.927999 26.931 0.704 27.107 0.527999C27.299 0.335999 27.531 0.24 27.803 0.24C28.091 0.24 28.323 0.335999 28.499 0.527999C28.675 0.704 28.763 0.927999 28.763 1.2V17.016ZM34.5989 17.016C34.5989 17.288 34.5029 17.52 34.3109 17.712C34.1189 17.904 33.8869 18 33.6149 18C33.3429 18 33.1189 17.904 32.9429 17.712C32.7669 17.52 32.6789 17.288 32.6789 17.016V1.2C32.6789 0.927999 32.7669 0.704 32.9429 0.527999C33.1349 0.335999 33.3669 0.24 33.6389 0.24C33.9269 0.24 34.1589 0.335999 34.3349 0.527999C34.5109 0.704 34.5989 0.927999 34.5989 1.2V17.016ZM48.4269 5.472C48.7149 5.472 48.9469 5.568 49.1229 5.76C49.2989 5.936 49.3869 6.16 49.3869 6.432V17.016C49.3869 17.288 49.2909 17.52 49.0989 17.712C48.9229 17.904 48.6989 18 48.4269 18C48.1549 18 47.9229 17.904 47.7309 17.712C47.5549 17.52 47.4669 17.288 47.4669 17.016V14.736L47.9229 14.688C47.9229 15.04 47.8029 15.424 47.5629 15.84C47.3229 16.256 46.9949 16.648 46.5789 17.016C46.1629 17.368 45.6749 17.664 45.1149 17.904C44.5549 18.128 43.9469 18.24 43.2909 18.24C42.2029 18.24 41.2189 17.96 40.3389 17.4C39.4749 16.824 38.7949 16.048 38.2989 15.072C37.8029 14.096 37.5549 12.984 37.5549 11.736C37.5549 10.472 37.8029 9.36 38.2989 8.4C38.8109 7.424 39.4909 6.664 40.3389 6.12C41.2029 5.56 42.1709 5.28 43.2429 5.28C43.9309 5.28 44.5709 5.392 45.1629 5.616C45.7549 5.84 46.2669 6.144 46.6989 6.528C47.1469 6.912 47.4909 7.336 47.7309 7.8C47.9709 8.264 48.0909 8.728 48.0909 9.192L47.4669 9.048V6.432C47.4669 6.16 47.5549 5.936 47.7309 5.76C47.9229 5.568 48.1549 5.472 48.4269 5.472ZM43.4829 16.464C44.2829 16.464 44.9869 16.256 45.5949 15.84C46.2189 15.424 46.7069 14.864 47.0589 14.16C47.4109 13.44 47.5869 12.632 47.5869 11.736C47.5869 10.856 47.4109 10.064 47.0589 9.36C46.7069 8.64 46.2189 8.08 45.5949 7.68C44.9869 7.264 44.2829 7.056 43.4829 7.056C42.6989 7.056 41.9949 7.256 41.3709 7.656C40.7629 8.056 40.2829 8.608 39.9309 9.312C39.5789 10.016 39.4029 10.824 39.4029 11.736C39.4029 12.632 39.5789 13.44 39.9309 14.16C40.2829 14.864 40.7629 15.424 41.3709 15.84C41.9949 16.256 42.6989 16.464 43.4829 16.464ZM53.9079 18C53.6359 18 53.4039 17.904 53.2119 17.712C53.0359 17.52 52.9479 17.288 52.9479 17.016V6.552C52.9479 6.28 53.0359 6.056 53.2119 5.88C53.4039 5.688 53.6359 5.592 53.9079 5.592C54.1959 5.592 54.4279 5.688 54.6039 5.88C54.7799 6.056 54.8679 6.28 54.8679 6.552V9.72L54.5799 9.216C54.6759 8.72 54.8439 8.24 55.0839 7.776C55.3399 7.296 55.6599 6.872 56.0439 6.504C56.4279 6.12 56.8679 5.824 57.3639 5.616C57.8599 5.392 58.4039 5.28 58.9959 5.28C59.3479 5.28 59.6679 5.368 59.9559 5.544C60.2599 5.704 60.4119 5.936 60.4119 6.24C60.4119 6.576 60.3239 6.824 60.1479 6.984C59.9719 7.144 59.7719 7.224 59.5479 7.224C59.3399 7.224 59.1399 7.184 58.9479 7.104C58.7559 7.008 58.5159 6.96 58.2279 6.96C57.8279 6.96 57.4279 7.072 57.0279 7.296C56.6439 7.504 56.2839 7.808 55.9479 8.208C55.6279 8.608 55.3639 9.064 55.1559 9.576C54.9639 10.072 54.8679 10.608 54.8679 11.184V17.016C54.8679 17.288 54.7719 17.52 54.5799 17.712C54.4039 17.904 54.1799 18 53.9079 18ZM68.5807 5.4C69.6367 5.4 70.4687 5.632 71.0767 6.096C71.7007 6.544 72.1407 7.152 72.3967 7.92C72.6687 8.672 72.8047 9.512 72.8047 10.44V17.016C72.8047 17.288 72.7087 17.52 72.5167 17.712C72.3407 17.904 72.1167 18 71.8447 18C71.5727 18 71.3407 17.904 71.1487 17.712C70.9727 17.52 70.8847 17.288 70.8847 17.016V10.44C70.8847 9.832 70.7967 9.288 70.6207 8.808C70.4447 8.312 70.1487 7.92 69.7327 7.632C69.3327 7.328 68.7807 7.176 68.0767 7.176C67.4207 7.176 66.8207 7.328 66.2767 7.632C65.7327 7.92 65.3007 8.312 64.9807 8.808C64.6607 9.288 64.5007 9.832 64.5007 10.44V17.016C64.5007 17.288 64.4047 17.52 64.2127 17.712C64.0367 17.904 63.8127 18 63.5407 18C63.2687 18 63.0367 17.904 62.8447 17.712C62.6687 17.52 62.5807 17.288 62.5807 17.016V1.2C62.5807 0.927999 62.6687 0.704 62.8447 0.527999C63.0367 0.335999 63.2687 0.24 63.5407 0.24C63.8287 0.24 64.0607 0.335999 64.2367 0.527999C64.4127 0.704 64.5007 0.927999 64.5007 1.2V8.376L64.0207 8.904C64.1007 8.488 64.2767 8.072 64.5487 7.656C64.8207 7.224 65.1647 6.84 65.5807 6.504C65.9967 6.168 66.4607 5.904 66.9727 5.712C67.4847 5.504 68.0207 5.4 68.5807 5.4ZM86.4659 5.472C86.7539 5.472 86.9859 5.568 87.1619 5.76C87.3379 5.936 87.4259 6.16 87.4259 6.432V17.016C87.4259 17.288 87.3299 17.52 87.1379 17.712C86.9619 17.904 86.7379 18 86.4659 18C86.1939 18 85.9619 17.904 85.7699 17.712C85.5939 17.52 85.5059 17.288 85.5059 17.016V14.736L85.9619 14.688C85.9619 15.04 85.8419 15.424 85.6019 15.84C85.3619 16.256 85.0339 16.648 84.6179 17.016C84.2019 17.368 83.7139 17.664 83.1539 17.904C82.5939 18.128 81.9859 18.24 81.3299 18.24C80.2419 18.24 79.2579 17.96 78.3779 17.4C77.5139 16.824 76.8339 16.048 76.3379 15.072C75.8419 14.096 75.5939 12.984 75.5939 11.736C75.5939 10.472 75.8419 9.36 76.3379 8.4C76.8499 7.424 77.5299 6.664 78.3779 6.12C79.2419 5.56 80.2099 5.28 81.2819 5.28C81.9699 5.28 82.6099 5.392 83.2019 5.616C83.7939 5.84 84.3059 6.144 84.7379 6.528C85.1859 6.912 85.5299 7.336 85.7699 7.8C86.0099 8.264 86.1299 8.728 86.1299 9.192L85.5059 9.048V6.432C85.5059 6.16 85.5939 5.936 85.7699 5.76C85.9619 5.568 86.1939 5.472 86.4659 5.472ZM81.5219 16.464C82.3219 16.464 83.0259 16.256 83.6339 15.84C84.2579 15.424 84.7459 14.864 85.0979 14.16C85.4499 13.44 85.6259 12.632 85.6259 11.736C85.6259 10.856 85.4499 10.064 85.0979 9.36C84.7459 8.64 84.2579 8.08 83.6339 7.68C83.0259 7.264 82.3219 7.056 81.5219 7.056C80.7379 7.056 80.0339 7.256 79.4099 7.656C78.8019 8.056 78.3219 8.608 77.9699 9.312C77.6179 10.016 77.4419 10.824 77.4419 11.736C77.4419 12.632 77.6179 13.44 77.9699 14.16C78.3219 14.864 78.8019 15.424 79.4099 15.84C80.0339 16.256 80.7379 16.464 81.5219 16.464ZM97.1549 5.28C98.2429 5.28 99.0989 5.504 99.7229 5.952C100.347 6.4 100.787 7 101.043 7.752C101.315 8.504 101.451 9.344 101.451 10.272V17.016C101.451 17.288 101.355 17.52 101.163 17.712C100.987 17.904 100.763 18 100.491 18C100.219 18 99.9869 17.904 99.7949 17.712C99.6189 17.52 99.5309 17.288 99.5309 17.016V10.32C99.5309 9.712 99.4349 9.168 99.2429 8.688C99.0669 8.192 98.7629 7.8 98.3309 7.512C97.9149 7.208 97.3389 7.056 96.6029 7.056C95.9309 7.056 95.3149 7.208 94.7549 7.512C94.1949 7.8 93.7469 8.192 93.4109 8.688C93.0749 9.168 92.9069 9.712 92.9069 10.32V17.016C92.9069 17.288 92.8109 17.52 92.6189 17.712C92.4429 17.904 92.2189 18 91.9469 18C91.6749 18 91.4429 17.904 91.2509 17.712C91.0749 17.52 90.9869 17.288 90.9869 17.016V6.552C90.9869 6.28 91.0749 6.056 91.2509 5.88C91.4429 5.688 91.6749 5.592 91.9469 5.592C92.2349 5.592 92.4669 5.688 92.6429 5.88C92.8189 6.056 92.9069 6.28 92.9069 6.552V8.256L92.4269 8.784C92.5069 8.368 92.6909 7.952 92.9789 7.536C93.2669 7.104 93.6269 6.72 94.0589 6.384C94.4909 6.048 94.9709 5.784 95.4989 5.592C96.0269 5.384 96.5789 5.28 97.1549 5.28ZM115.107 0.24C115.395 0.24 115.627 0.335999 115.803 0.527999C115.979 0.704 116.067 0.927999 116.067 1.2V17.016C116.067 17.288 115.971 17.52 115.779 17.712C115.603 17.904 115.379 18 115.107 18C114.835 18 114.603 17.904 114.411 17.712C114.235 17.52 114.147 17.288 114.147 17.016V14.736L114.603 14.568C114.603 14.952 114.483 15.36 114.243 15.792C114.019 16.208 113.691 16.6 113.259 16.968C112.843 17.336 112.355 17.64 111.795 17.88C111.235 18.12 110.627 18.24 109.971 18.24C108.883 18.24 107.907 17.96 107.043 17.4C106.179 16.84 105.491 16.072 104.979 15.096C104.483 14.12 104.235 13.008 104.235 11.76C104.235 10.496 104.483 9.376 104.979 8.4C105.491 7.424 106.171 6.664 107.019 6.12C107.883 5.56 108.851 5.28 109.923 5.28C110.595 5.28 111.219 5.392 111.795 5.616C112.387 5.84 112.907 6.144 113.355 6.528C113.803 6.912 114.147 7.336 114.387 7.8C114.643 8.264 114.771 8.728 114.771 9.192L114.147 9.048V1.2C114.147 0.927999 114.235 0.704 114.411 0.527999C114.603 0.335999 114.835 0.24 115.107 0.24ZM110.163 16.464C110.979 16.464 111.691 16.264 112.299 15.864C112.907 15.448 113.387 14.888 113.739 14.184C114.091 13.464 114.267 12.656 114.267 11.76C114.267 10.848 114.091 10.04 113.739 9.336C113.387 8.632 112.899 8.08 112.275 7.68C111.667 7.264 110.963 7.056 110.163 7.056C109.379 7.056 108.675 7.264 108.051 7.68C107.443 8.08 106.963 8.632 106.611 9.336C106.259 10.04 106.083 10.848 106.083 11.76C106.083 12.64 106.259 13.44 106.611 14.16C106.963 14.864 107.443 15.424 108.051 15.84C108.675 16.256 109.379 16.464 110.163 16.464Z" fill="#373737"/>
</svg>
