<svg width="24" height="24" viewBox="0 0 24 24" fill="none" xmlns="http://www.w3.org/2000/svg">
<path fill-rule="evenodd" clip-rule="evenodd" d="M8.9015 21.1621L3.6215 21.9221C3.21496 21.977 2.80455 21.8534 2.49595 21.5832C2.18734 21.3129 2.0107 20.9224 2.0115 20.5121L2.0115 20.3021L2.7715 15.0221C2.87017 14.3064 3.2003 13.6427 3.7115 13.1321L13.4615 3.39215C15.4234 1.49729 18.5419 1.52438 20.4706 3.45305C22.3993 5.38172 22.4264 8.50025 20.5315 10.4621L10.7915 20.2221C10.281 20.7333 9.6172 21.0635 8.9015 21.1621ZM4.7715 14.2421C4.50588 14.5187 4.32538 14.8659 4.2515 15.2421L3.5615 20.4521L8.7315 19.7221C9.10779 19.6483 9.45491 19.4678 9.7315 19.2021L19.4715 9.45215C20.1459 8.79521 20.5263 7.89365 20.5263 6.95215C20.5263 6.01065 20.1459 5.10909 19.4715 4.45215C18.8164 3.79323 17.9256 3.42273 16.9965 3.42273C16.0674 3.42273 15.1766 3.79323 14.5215 4.45215L4.7715 14.2421Z" fill="black"/>
</svg>
